<svg width="268" height="194" viewBox="0 0 268 194" fill="none" xmlns="http://www.w3.org/2000/svg">
<path d="M6 189.088C4.784 189.088 3.784 188.8 3 188.224C2.232 187.648 1.664 186.904 1.296 185.992C0.944 185.08 0.768 184.136 0.768 183.16C0.768 181.896 0.96 180.632 1.344 179.368C1.728 178.088 2.256 176.872 2.928 175.72C3.616 174.568 4.392 173.544 5.256 172.648C6.12 171.752 7.04 171.048 8.016 170.536C9.008 170.008 9.992 169.744 10.968 169.744C11.672 169.744 12.264 169.912 12.744 170.248C13.224 170.568 13.464 171.128 13.464 171.928C13.464 172.408 13.376 172.944 13.2 173.536C13.04 174.128 12.816 174.704 12.528 175.264C12.256 175.808 11.944 176.256 11.592 176.608C11.24 176.96 10.88 177.136 10.512 177.136C10.352 177.136 10.184 177.08 10.008 176.968C9.832 176.856 9.672 176.664 9.528 176.392C9.768 176.12 10.04 175.792 10.344 175.408C10.648 175.008 10.936 174.592 11.208 174.16C11.48 173.712 11.704 173.28 11.88 172.864C12.056 172.432 12.144 172.056 12.144 171.736C12.144 171.448 12.064 171.224 11.904 171.064C11.744 170.888 11.464 170.8 11.064 170.8C10.36 170.8 9.632 171.064 8.88 171.592C8.144 172.12 7.432 172.832 6.744 173.728C6.056 174.608 5.432 175.6 4.872 176.704C4.328 177.792 3.896 178.92 3.576 180.088C3.256 181.24 3.096 182.336 3.096 183.376C3.096 184.144 3.208 184.88 3.432 185.584C3.672 186.272 4.048 186.832 4.56 187.264C5.072 187.712 5.744 187.936 6.576 187.936C7.44 187.936 8.296 187.696 9.144 187.216C10.008 186.736 10.792 186.104 11.496 185.32C12.216 184.536 12.792 183.696 13.224 182.8L13.848 183.208C13.288 184.28 12.616 185.264 11.832 186.16C11.048 187.04 10.16 187.744 9.168 188.272C8.192 188.816 7.136 189.088 6 189.088ZM14.2402 187.768C13.5203 187.768 13.0243 187.528 12.7523 187.048C12.4962 186.584 12.3682 186.072 12.3682 185.512C12.3682 185 12.4482 184.48 12.6082 183.952C12.7683 183.408 12.9843 182.904 13.2563 182.44C13.5443 181.976 13.8563 181.608 14.1923 181.336C14.5443 181.048 14.8963 180.904 15.2483 180.904C15.3603 180.904 15.4883 180.928 15.6323 180.976C15.7923 181.008 15.9043 181.064 15.9683 181.144C15.7763 181.384 15.5763 181.68 15.3683 182.032C15.1763 182.384 14.9923 182.76 14.8163 183.16C14.6563 183.544 14.5283 183.936 14.4323 184.336C14.3363 184.736 14.2883 185.104 14.2883 185.44C14.2883 185.76 14.3443 186.024 14.4563 186.232C14.5843 186.44 14.8003 186.544 15.1043 186.544C15.4083 186.544 15.7683 186.376 16.1842 186.04C16.6163 185.688 17.0243 185.288 17.4083 184.84C16.8963 184.376 16.5283 183.872 16.3043 183.328C16.0803 182.768 15.9683 182.096 15.9683 181.312C15.9683 180.976 16.0483 180.592 16.2083 180.16C16.3843 179.728 16.6563 179.352 17.0243 179.032C17.4083 178.712 17.9203 178.552 18.5603 178.552C19.2483 178.552 19.7283 178.744 20.0003 179.128C20.2883 179.512 20.4323 179.968 20.4323 180.496C20.4323 181.088 20.2723 181.752 19.9523 182.488C19.6483 183.224 19.2803 183.92 18.8483 184.576C19.0403 184.672 19.2643 184.72 19.5203 184.72C19.7603 184.72 20.0483 184.664 20.3843 184.552C20.7203 184.44 21.0483 184.256 21.3683 184C21.6883 183.728 21.9443 183.368 22.1363 182.92L22.5683 183.232C22.2163 184.048 21.7443 184.648 21.1523 185.032C20.5763 185.4 20.0083 185.584 19.4483 185.584C19.2403 185.584 19.0323 185.568 18.8242 185.536C18.6163 185.488 18.4243 185.432 18.2483 185.368C17.7043 186.008 17.0803 186.568 16.3763 187.048C15.6723 187.528 14.9603 187.768 14.2402 187.768ZM18.0323 184.072C18.4163 183.512 18.7443 182.912 19.0163 182.272C19.2883 181.632 19.4243 181.04 19.4243 180.496C19.4243 180.128 19.3683 179.864 19.2563 179.704C19.1443 179.528 18.9763 179.44 18.7523 179.44C18.4483 179.44 18.1363 179.656 17.8163 180.088C17.4963 180.52 17.3363 181.064 17.3363 181.72C17.3363 182.056 17.3923 182.464 17.5043 182.944C17.6323 183.424 17.8083 183.8 18.0323 184.072ZM21.7779 193.72C21.2179 193.72 20.7779 193.608 20.4579 193.384C20.1219 193.176 19.9539 192.824 19.9539 192.328C19.9539 191.784 20.1299 191.296 20.4819 190.864C20.8179 190.432 21.2739 190.024 21.8499 189.64C22.4419 189.256 23.0899 188.864 23.7939 188.464C24.5139 188.064 25.2339 187.624 25.9539 187.144C25.9379 186.632 25.7779 186.144 25.4739 185.68C25.1859 185.216 24.6739 184.72 23.9379 184.192C24.5619 184.016 25.0899 183.744 25.5219 183.376C25.9539 182.992 26.2819 182.576 26.5059 182.128C26.7299 181.664 26.8419 181.232 26.8419 180.832C26.8419 180.544 26.7699 180.288 26.6259 180.064C26.4819 179.824 26.2259 179.704 25.8579 179.704C25.3779 179.704 24.9299 179.912 24.5139 180.328C24.0979 180.744 23.6979 181.28 23.3139 181.936C22.9459 182.592 22.5859 183.296 22.2339 184.048L21.7779 183.664C22.1299 182.72 22.4979 181.864 22.8819 181.096C23.2819 180.312 23.7459 179.688 24.2739 179.224C24.8179 178.76 25.4659 178.528 26.2179 178.528C26.8739 178.528 27.4339 178.712 27.8979 179.08C28.3619 179.448 28.5939 179.984 28.5939 180.688C28.5939 181.184 28.4659 181.672 28.2099 182.152C27.9699 182.616 27.6419 183.048 27.2259 183.448C26.8259 183.832 26.3779 184.152 25.8819 184.408C26.2339 184.68 26.5379 184.992 26.7939 185.344C27.0659 185.696 27.2819 186.04 27.4419 186.376C28.0179 185.928 28.5379 185.432 29.0019 184.888C29.4659 184.344 29.8339 183.72 30.1059 183.016L30.4179 183.4C30.1779 184.104 29.8179 184.768 29.3379 185.392C28.8739 186 28.3219 186.536 27.6819 187C27.7139 187.112 27.7379 187.224 27.7539 187.336C27.7699 187.464 27.7779 187.616 27.7779 187.792C27.7779 188.496 27.6179 189.192 27.2979 189.88C26.9779 190.584 26.5299 191.224 25.9539 191.8C25.3939 192.376 24.7539 192.84 24.0339 193.192C23.3299 193.544 22.5779 193.72 21.7779 193.72ZM21.4419 192.808C21.7299 192.808 22.0979 192.696 22.5459 192.472C23.0099 192.264 23.4739 191.952 23.9379 191.536C24.4179 191.136 24.8339 190.648 25.1859 190.072C25.5539 189.496 25.7939 188.84 25.9059 188.104C25.3139 188.488 24.7139 188.848 24.1059 189.184C23.4979 189.52 22.9459 189.848 22.4499 190.168C21.9539 190.504 21.5539 190.832 21.2499 191.152C20.9459 191.472 20.7939 191.808 20.7939 192.16C20.7939 192.384 20.8579 192.544 20.9859 192.64C21.1139 192.752 21.2659 192.808 21.4419 192.808ZM31.4513 187.72C30.7473 187.72 30.2193 187.512 29.8673 187.096C29.5152 186.68 29.3392 186.176 29.3392 185.584C29.3392 185.216 29.4032 184.752 29.5312 184.192C29.6593 183.632 29.8353 183.048 30.0593 182.44C30.2993 181.816 30.5713 181.232 30.8753 180.688C31.1793 180.144 31.5073 179.704 31.8593 179.368C32.2113 179.016 32.5633 178.84 32.9153 178.84C33.1073 178.84 33.2753 178.904 33.4193 179.032C33.5633 179.144 33.6353 179.312 33.6353 179.536C33.6353 179.744 33.5073 180.056 33.2513 180.472C33.0113 180.888 32.7233 181.368 32.3873 181.912C32.0673 182.456 31.7793 183.024 31.5233 183.616C31.2833 184.192 31.1633 184.744 31.1633 185.272C31.1633 185.784 31.2513 186.128 31.4273 186.304C31.6193 186.464 31.8913 186.544 32.2433 186.544C32.7873 186.544 33.3793 186.272 34.0193 185.728C34.6593 185.184 35.3233 184.232 36.0113 182.872L36.3713 183.256C35.8113 184.664 35.0993 185.76 34.2353 186.544C33.3713 187.328 32.4433 187.72 31.4513 187.72ZM34.2833 176.896C33.9793 176.896 33.6993 176.824 33.4433 176.68C33.2033 176.52 33.0833 176.28 33.0833 175.96C33.0833 175.576 33.2913 175.248 33.7073 174.976C34.1233 174.704 34.5553 174.568 35.0033 174.568C35.2913 174.568 35.5313 174.632 35.7233 174.76C35.9313 174.888 36.0353 175.12 36.0353 175.456C36.0353 175.792 35.8513 176.12 35.4833 176.44C35.1153 176.744 34.7153 176.896 34.2833 176.896ZM43.4786 187.48C42.8546 187.48 42.3746 187.32 42.0386 187C41.7186 186.696 41.5586 186.304 41.5586 185.824C41.5586 185.504 41.6146 185.168 41.7266 184.816C41.8386 184.448 41.9506 184.08 42.0626 183.712C42.1746 183.344 42.2306 182.992 42.2306 182.656C42.2306 182.304 42.1426 182.064 41.9666 181.936C41.8066 181.792 41.6146 181.72 41.3906 181.72C40.9106 181.72 40.4146 181.92 39.9026 182.32C39.4066 182.704 38.9186 183.192 38.4386 183.784C37.9746 184.376 37.5346 184.992 37.1186 185.632C36.7026 186.272 36.3426 186.848 36.0386 187.36C35.7346 187.36 35.4466 187.304 35.1746 187.192C34.9026 187.096 34.6706 186.92 34.4786 186.664C34.4946 186.584 34.5906 186.344 34.7666 185.944C34.9266 185.528 35.1106 185.04 35.3186 184.48C35.5266 183.904 35.7106 183.304 35.8706 182.68C36.0306 182.056 36.1106 181.488 36.1106 180.976C36.2226 180.848 36.3906 180.72 36.6146 180.592C36.8546 180.464 37.1026 180.4 37.3586 180.4C37.9186 180.4 38.1986 180.64 38.1986 181.12C38.1986 181.312 38.1586 181.6 38.0786 181.984C38.0146 182.352 37.9186 182.776 37.7906 183.256C38.2066 182.696 38.6626 182.168 39.1586 181.672C39.6546 181.176 40.1666 180.776 40.6946 180.472C41.2386 180.152 41.7826 179.992 42.3266 179.992C43.0146 179.992 43.5186 180.224 43.8386 180.688C44.1746 181.152 44.3426 181.664 44.3426 182.224C44.3426 182.704 44.2626 183.152 44.1026 183.568C43.9426 183.984 43.7826 184.376 43.6226 184.744C43.4786 185.112 43.4066 185.472 43.4066 185.824C43.4066 186.08 43.4626 186.264 43.5746 186.376C43.7026 186.472 43.8386 186.52 43.9826 186.52C44.3666 186.52 44.7666 186.336 45.1826 185.968C45.5986 185.6 45.9906 185.136 46.3586 184.576C46.7426 184 47.0786 183.424 47.3666 182.848L47.7746 183.184C47.4386 183.968 47.0546 184.688 46.6226 185.344C46.2066 185.984 45.7346 186.504 45.2066 186.904C44.6946 187.288 44.1186 187.48 43.4786 187.48ZM47.8384 187.912C47.4864 187.912 47.2304 187.64 47.0704 187.096C46.9264 186.552 46.8544 185.92 46.8544 185.2C46.8544 184.464 46.9744 183.576 47.2144 182.536C47.4704 181.496 47.8064 180.4 48.2224 179.248C48.6544 178.096 49.1264 176.968 49.6384 175.864C50.1664 174.76 50.7024 173.76 51.2464 172.864C51.8064 171.952 52.3344 171.224 52.8304 170.68C53.3424 170.136 53.7904 169.864 54.1744 169.864C54.5104 169.864 54.7664 170.048 54.9424 170.416C55.1184 170.784 55.2064 171.168 55.2064 171.568C55.2064 172 55.1024 172.536 54.8944 173.176C54.7024 173.8 54.4304 174.472 54.0784 175.192C53.7264 175.912 53.3104 176.624 52.8304 177.328C52.3664 178.016 51.8544 178.648 51.2944 179.224C50.7504 179.8 50.1824 180.264 49.5904 180.616C49.3824 181.16 49.2144 181.672 49.0864 182.152C48.9744 182.616 48.8944 183.056 48.8464 183.472C48.7984 183.888 48.7744 184.296 48.7744 184.696C48.7744 184.776 48.7744 184.864 48.7744 184.96C48.7904 185.04 48.7984 185.12 48.7984 185.2C48.8624 185.104 48.9664 184.856 49.1104 184.456C49.2544 184.056 49.4464 183.592 49.6864 183.064C49.9424 182.52 50.2544 181.992 50.6224 181.48C50.9904 180.952 51.4224 180.52 51.9184 180.184C52.4144 179.832 52.9824 179.656 53.6224 179.656C54.1664 179.656 54.5904 179.784 54.8944 180.04C55.1984 180.28 55.4144 180.584 55.5424 180.952C55.6704 181.304 55.7344 181.664 55.7344 182.032C55.7344 182.544 55.6464 183.024 55.4704 183.472C55.3104 183.92 55.1424 184.344 54.9664 184.744C54.8064 185.128 54.7264 185.496 54.7264 185.848C54.7264 186.136 54.7904 186.336 54.9184 186.448C55.0464 186.56 55.1984 186.616 55.3744 186.616C55.7264 186.616 56.1344 186.44 56.5984 186.088C57.0784 185.736 57.5504 185.272 58.0144 184.696C58.4944 184.104 58.9024 183.456 59.2384 182.752L59.6224 183.16C59.2544 183.96 58.8224 184.696 58.3264 185.368C57.8304 186.04 57.2864 186.576 56.6944 186.976C56.1024 187.376 55.4624 187.576 54.7744 187.576C54.1664 187.576 53.7024 187.416 53.3824 187.096C53.0624 186.776 52.9024 186.376 52.9024 185.896C52.9024 185.56 52.9584 185.192 53.0704 184.792C53.1984 184.376 53.3184 183.96 53.4304 183.544C53.5424 183.128 53.5984 182.752 53.5984 182.416C53.5984 182.032 53.5104 181.768 53.3344 181.624C53.1744 181.48 52.9744 181.408 52.7344 181.408C52.3344 181.408 51.9744 181.568 51.6544 181.888C51.3344 182.192 51.0464 182.592 50.7904 183.088C50.5344 183.584 50.2944 184.112 50.0704 184.672C49.8464 185.216 49.6224 185.736 49.3984 186.232C49.1744 186.728 48.9344 187.128 48.6784 187.432C48.4384 187.752 48.1584 187.912 47.8384 187.912ZM50.0944 179.08C50.5104 178.712 50.9104 178.272 51.2944 177.76C51.6784 177.248 52.0304 176.72 52.3504 176.176C52.6864 175.616 52.9744 175.08 53.2144 174.568C53.4704 174.04 53.6704 173.568 53.8144 173.152C53.9584 172.736 54.0384 172.416 54.0544 172.192C54.0544 172.176 54.0544 172.168 54.0544 172.168C54.0544 172.152 54.0544 172.136 54.0544 172.12C53.9584 172.12 53.7504 172.32 53.4304 172.72C53.1264 173.104 52.7664 173.632 52.3504 174.304C51.9504 174.96 51.5424 175.704 51.1264 176.536C50.7264 177.368 50.3824 178.216 50.0944 179.08ZM59.9378 188.128C59.4098 188.128 58.9538 187.952 58.5697 187.6C58.1697 187.248 57.9697 186.72 57.9697 186.016C57.9697 185.456 58.0977 184.848 58.3537 184.192C58.6097 183.536 58.9618 182.888 59.4098 182.248C59.8578 181.608 60.3698 181.032 60.9458 180.52C61.5218 179.992 62.1378 179.568 62.7938 179.248C63.4498 178.928 64.1058 178.768 64.7617 178.768C65.4498 178.768 66.0338 178.944 66.5138 179.296C66.9938 179.648 67.2338 180.112 67.2338 180.688C67.2338 181.12 67.0818 181.432 66.7778 181.624C66.4738 181.816 66.1138 181.872 65.6978 181.792C65.7298 181.648 65.7538 181.504 65.7698 181.36C65.8018 181.216 65.8178 181.064 65.8178 180.904C65.8178 180.584 65.7538 180.296 65.6258 180.04C65.4978 179.784 65.2258 179.656 64.8098 179.656C64.3618 179.656 63.9058 179.808 63.4418 180.112C62.9778 180.416 62.5298 180.816 62.0978 181.312C61.6818 181.792 61.3058 182.328 60.9698 182.92C60.6338 183.496 60.3698 184.064 60.1777 184.624C59.9858 185.184 59.8898 185.688 59.8898 186.136C59.8898 186.648 60.0738 186.904 60.4418 186.904C60.8098 186.904 61.2178 186.728 61.6658 186.376C62.1138 186.008 62.5618 185.552 63.0098 185.008C63.4738 184.464 63.9138 183.912 64.3298 183.352C64.7458 182.776 65.1058 182.288 65.4098 181.888C65.4578 181.808 65.5218 181.768 65.6018 181.768C65.6658 181.784 65.7858 181.824 65.9618 181.888C66.1538 181.936 66.3298 182.016 66.4898 182.128C66.6498 182.24 66.7298 182.384 66.7298 182.56C66.7298 182.72 66.6578 182.928 66.5138 183.184C66.3858 183.424 66.2258 183.696 66.0338 184C65.8578 184.288 65.6978 184.584 65.5538 184.888C65.4258 185.176 65.3618 185.456 65.3618 185.728C65.3618 185.936 65.4178 186.136 65.5298 186.328C65.6418 186.504 65.8258 186.592 66.0818 186.592C66.4658 186.592 67.0018 186.312 67.6898 185.752C68.3938 185.176 69.1058 184.208 69.8258 182.848L70.2818 183.304C69.8978 184.168 69.4338 184.936 68.8898 185.608C68.3618 186.264 67.8018 186.776 67.2098 187.144C66.6178 187.528 66.0178 187.72 65.4098 187.72C64.7538 187.72 64.2658 187.512 63.9458 187.096C63.6258 186.68 63.4498 186.232 63.4178 185.752C63.4178 185.72 63.4178 185.696 63.4178 185.68C63.4178 185.664 63.4178 185.648 63.4178 185.632C62.7778 186.4 62.1858 187.008 61.6418 187.456C61.1138 187.904 60.5458 188.128 59.9378 188.128ZM77.3458 187.48C76.7218 187.48 76.2418 187.32 75.9058 187C75.5858 186.696 75.4258 186.304 75.4258 185.824C75.4258 185.504 75.4818 185.168 75.5938 184.816C75.7058 184.448 75.8178 184.08 75.9298 183.712C76.0418 183.344 76.0978 182.992 76.0978 182.656C76.0978 182.304 76.0098 182.064 75.8338 181.936C75.6738 181.792 75.4818 181.72 75.2578 181.72C74.7778 181.72 74.2818 181.92 73.7698 182.32C73.2738 182.704 72.7858 183.192 72.3058 183.784C71.8418 184.376 71.4018 184.992 70.9858 185.632C70.5698 186.272 70.2098 186.848 69.9058 187.36C69.6018 187.36 69.3138 187.304 69.0418 187.192C68.7698 187.096 68.5378 186.92 68.3458 186.664C68.3618 186.584 68.4578 186.344 68.6338 185.944C68.7938 185.528 68.9778 185.04 69.1858 184.48C69.3938 183.904 69.5778 183.304 69.7378 182.68C69.8978 182.056 69.9778 181.488 69.9778 180.976C70.0898 180.848 70.2578 180.72 70.4818 180.592C70.7218 180.464 70.9698 180.4 71.2258 180.4C71.7858 180.4 72.0658 180.64 72.0658 181.12C72.0658 181.312 72.0258 181.6 71.9458 181.984C71.8818 182.352 71.7858 182.776 71.6578 183.256C72.0738 182.696 72.5298 182.168 73.0258 181.672C73.5218 181.176 74.0338 180.776 74.5618 180.472C75.1058 180.152 75.6498 179.992 76.1938 179.992C76.8818 179.992 77.3858 180.224 77.7058 180.688C78.0418 181.152 78.2098 181.664 78.2098 182.224C78.2098 182.704 78.1298 183.152 77.9698 183.568C77.8098 183.984 77.6498 184.376 77.4898 184.744C77.3458 185.112 77.2738 185.472 77.2738 185.824C77.2738 186.08 77.3298 186.264 77.4418 186.376C77.5698 186.472 77.7058 186.52 77.8498 186.52C78.2338 186.52 78.6338 186.336 79.0498 185.968C79.4658 185.6 79.8578 185.136 80.2258 184.576C80.6098 184 80.9458 183.424 81.2338 182.848L81.6418 183.184C81.3058 183.968 80.9218 184.688 80.4898 185.344C80.0738 185.984 79.6018 186.504 79.0738 186.904C78.5618 187.288 77.9858 187.48 77.3458 187.48ZM82.2576 187.72C81.9536 187.72 81.6416 187.64 81.3216 187.48C81.0176 187.336 80.7616 187.104 80.5536 186.784C80.3296 186.464 80.2176 186.056 80.2176 185.56C80.2176 185.032 80.3456 184.44 80.6016 183.784C80.8576 183.128 81.2016 182.472 81.6336 181.816C82.0816 181.16 82.5936 180.56 83.1696 180.016C83.7616 179.472 84.3856 179.032 85.0416 178.696C85.6976 178.36 86.3616 178.192 87.0336 178.192C87.4016 178.192 87.6896 178.256 87.8976 178.384C88.1056 178.496 88.2096 178.688 88.2096 178.96C88.2096 179.04 88.1936 179.136 88.1616 179.248C88.1296 179.344 88.0496 179.432 87.9216 179.512C87.8576 179.416 87.7456 179.352 87.5856 179.32C87.4256 179.272 87.2576 179.248 87.0816 179.248C86.5536 179.248 86.0496 179.4 85.5696 179.704C85.0896 179.992 84.6496 180.368 84.2496 180.832C83.8496 181.296 83.4976 181.8 83.1936 182.344C82.9056 182.888 82.6816 183.416 82.5216 183.928C82.3616 184.424 82.2816 184.856 82.2816 185.224C82.2816 185.528 82.3456 185.776 82.4736 185.968C82.6016 186.144 82.7936 186.232 83.0496 186.232C83.4816 186.232 83.9936 185.984 84.5856 185.488C85.1936 184.976 85.8096 184.248 86.4336 183.304C87.0736 182.344 87.6496 181.2 88.1616 179.872C88.5136 178.96 88.8816 178.032 89.2656 177.088C89.6496 176.128 90.0336 175.208 90.4176 174.328C90.8016 173.448 91.1776 172.664 91.5456 171.976C91.9296 171.288 92.2896 170.744 92.6256 170.344C92.9776 169.928 93.2976 169.72 93.5856 169.72C93.7616 169.72 93.9136 169.792 94.0416 169.936C94.1856 170.064 94.2576 170.232 94.2576 170.44C94.2576 170.712 94.1216 171.152 93.8496 171.76C93.5936 172.352 93.2576 173.064 92.8416 173.896C92.4416 174.728 92.0016 175.632 91.5216 176.608C91.0576 177.568 90.6176 178.56 90.2016 179.584C89.8016 180.592 89.4656 181.592 89.1936 182.584C88.9376 183.56 88.8096 184.48 88.8096 185.344C88.8096 185.728 88.8416 185.992 88.9056 186.136C88.9856 186.264 89.1136 186.328 89.2896 186.328C89.6416 186.328 90.0336 186.192 90.4656 185.92C90.8976 185.648 91.3376 185.248 91.7856 184.72C92.2336 184.176 92.6416 183.528 93.0096 182.776L93.4656 183.16C93.1136 184.04 92.6656 184.816 92.1216 185.488C91.5776 186.16 90.9936 186.68 90.3696 187.048C89.7456 187.432 89.1296 187.624 88.5216 187.624C87.8656 187.624 87.4096 187.416 87.1536 187C86.8976 186.584 86.7696 186.096 86.7696 185.536C86.7696 185.28 86.7856 185.024 86.8176 184.768C86.8656 184.496 86.9136 184.232 86.9616 183.976C86.4656 184.696 85.9376 185.344 85.3776 185.92C84.8336 186.48 84.2976 186.92 83.7696 187.24C83.2416 187.56 82.7376 187.72 82.2576 187.72ZM93.9746 187.768C93.2546 187.768 92.7586 187.528 92.4866 187.048C92.2306 186.584 92.1026 186.072 92.1026 185.512C92.1026 185 92.1826 184.48 92.3426 183.952C92.5026 183.408 92.7186 182.904 92.9906 182.44C93.2786 181.976 93.5906 181.608 93.9266 181.336C94.2786 181.048 94.6306 180.904 94.9826 180.904C95.0946 180.904 95.2226 180.928 95.3666 180.976C95.5266 181.008 95.6386 181.064 95.7026 181.144C95.5106 181.384 95.3106 181.68 95.1026 182.032C94.9106 182.384 94.7266 182.76 94.5506 183.16C94.3906 183.544 94.2626 183.936 94.1666 184.336C94.0706 184.736 94.0226 185.104 94.0226 185.44C94.0226 185.76 94.0786 186.024 94.1906 186.232C94.3186 186.44 94.5346 186.544 94.8386 186.544C95.1426 186.544 95.5026 186.376 95.9186 186.04C96.3506 185.688 96.7586 185.288 97.1426 184.84C96.6306 184.376 96.2626 183.872 96.0386 183.328C95.8146 182.768 95.7026 182.096 95.7026 181.312C95.7026 180.976 95.7826 180.592 95.9426 180.16C96.1186 179.728 96.3906 179.352 96.7586 179.032C97.1426 178.712 97.6546 178.552 98.2946 178.552C98.9826 178.552 99.4626 178.744 99.7346 179.128C100.023 179.512 100.167 179.968 100.167 180.496C100.167 181.088 100.007 181.752 99.6866 182.488C99.3826 183.224 99.0146 183.92 98.5826 184.576C98.7746 184.672 98.9986 184.72 99.2546 184.72C99.4946 184.72 99.7826 184.664 100.119 184.552C100.455 184.44 100.783 184.256 101.103 184C101.423 183.728 101.679 183.368 101.871 182.92L102.303 183.232C101.951 184.048 101.479 184.648 100.887 185.032C100.311 185.4 99.7426 185.584 99.1826 185.584C98.9746 185.584 98.7666 185.568 98.5586 185.536C98.3506 185.488 98.1586 185.432 97.9826 185.368C97.4386 186.008 96.8146 186.568 96.1106 187.048C95.4066 187.528 94.6946 187.768 93.9746 187.768ZM97.7666 184.072C98.1506 183.512 98.4786 182.912 98.7506 182.272C99.0226 181.632 99.1586 181.04 99.1586 180.496C99.1586 180.128 99.1026 179.864 98.9906 179.704C98.8786 179.528 98.7106 179.44 98.4866 179.44C98.1826 179.44 97.8706 179.656 97.5506 180.088C97.2306 180.52 97.0706 181.064 97.0706 181.72C97.0706 182.056 97.1266 182.464 97.2386 182.944C97.3666 183.424 97.5426 183.8 97.7666 184.072ZM110.267 188.344C109.435 188.344 108.747 188.08 108.203 187.552C107.675 187.04 107.411 186.248 107.411 185.176C107.411 184.392 107.563 183.624 107.867 182.872C108.171 182.12 108.579 181.448 109.091 180.856C109.603 180.248 110.171 179.768 110.795 179.416C111.435 179.064 112.083 178.888 112.739 178.888C113.411 178.888 113.891 179.056 114.179 179.392C114.483 179.728 114.635 180.12 114.635 180.568C114.635 181.016 114.523 181.456 114.299 181.888C114.091 182.304 113.803 182.512 113.435 182.512C113.131 182.512 112.883 182.36 112.691 182.056C112.851 181.944 113.019 181.736 113.195 181.432C113.371 181.128 113.459 180.736 113.459 180.256C113.459 180.128 113.427 180.032 113.363 179.968C113.299 179.888 113.179 179.848 113.003 179.848C112.603 179.848 112.179 180.032 111.731 180.4C111.299 180.752 110.891 181.216 110.507 181.792C110.139 182.352 109.835 182.952 109.595 183.592C109.371 184.216 109.259 184.792 109.259 185.32C109.259 185.768 109.371 186.184 109.595 186.568C109.835 186.936 110.291 187.12 110.963 187.12C111.571 187.12 112.203 186.944 112.859 186.592C113.515 186.24 114.131 185.752 114.707 185.128C115.283 184.488 115.747 183.728 116.099 182.848L116.579 183.28C116.195 184.256 115.659 185.128 114.971 185.896C114.299 186.648 113.547 187.24 112.715 187.672C111.899 188.12 111.083 188.344 110.267 188.344ZM117.131 187.768C116.411 187.768 115.915 187.528 115.643 187.048C115.387 186.584 115.259 186.072 115.259 185.512C115.259 185 115.339 184.48 115.499 183.952C115.659 183.408 115.875 182.904 116.147 182.44C116.435 181.976 116.747 181.608 117.083 181.336C117.435 181.048 117.787 180.904 118.139 180.904C118.251 180.904 118.379 180.928 118.523 180.976C118.683 181.008 118.795 181.064 118.859 181.144C118.667 181.384 118.467 181.68 118.259 182.032C118.067 182.384 117.883 182.76 117.707 183.16C117.547 183.544 117.419 183.936 117.323 184.336C117.227 184.736 117.179 185.104 117.179 185.44C117.179 185.76 117.235 186.024 117.347 186.232C117.475 186.44 117.691 186.544 117.995 186.544C118.299 186.544 118.659 186.376 119.075 186.04C119.507 185.688 119.915 185.288 120.299 184.84C119.787 184.376 119.419 183.872 119.195 183.328C118.971 182.768 118.859 182.096 118.859 181.312C118.859 180.976 118.939 180.592 119.099 180.16C119.275 179.728 119.547 179.352 119.915 179.032C120.299 178.712 120.811 178.552 121.451 178.552C122.139 178.552 122.619 178.744 122.891 179.128C123.179 179.512 123.323 179.968 123.323 180.496C123.323 181.088 123.163 181.752 122.843 182.488C122.539 183.224 122.171 183.92 121.739 184.576C121.931 184.672 122.155 184.72 122.411 184.72C122.651 184.72 122.939 184.664 123.275 184.552C123.611 184.44 123.939 184.256 124.259 184C124.579 183.728 124.835 183.368 125.027 182.92L125.459 183.232C125.107 184.048 124.635 184.648 124.043 185.032C123.467 185.4 122.899 185.584 122.339 185.584C122.131 185.584 121.923 185.568 121.715 185.536C121.507 185.488 121.315 185.432 121.139 185.368C120.595 186.008 119.971 186.568 119.267 187.048C118.563 187.528 117.851 187.768 117.131 187.768ZM120.923 184.072C121.307 183.512 121.635 182.912 121.907 182.272C122.179 181.632 122.315 181.04 122.315 180.496C122.315 180.128 122.259 179.864 122.147 179.704C122.035 179.528 121.867 179.44 121.643 179.44C121.339 179.44 121.027 179.656 120.707 180.088C120.387 180.52 120.227 181.064 120.227 181.72C120.227 182.056 120.283 182.464 120.395 182.944C120.523 183.424 120.699 183.8 120.923 184.072ZM137.029 187.744C136.405 187.744 135.941 187.56 135.637 187.192C135.333 186.824 135.181 186.384 135.181 185.872C135.181 185.504 135.237 185.136 135.349 184.768C135.461 184.4 135.573 184.04 135.685 183.688C135.797 183.32 135.853 182.992 135.853 182.704C135.853 182.432 135.797 182.248 135.685 182.152C135.589 182.04 135.461 181.984 135.301 181.984C134.933 181.984 134.501 182.264 134.005 182.824C133.525 183.384 132.925 184.2 132.205 185.272C131.949 185.656 131.709 186.064 131.485 186.496C131.261 186.912 131.061 187.264 130.885 187.552C130.741 187.552 130.549 187.528 130.309 187.48C130.085 187.432 129.885 187.36 129.709 187.264C129.533 187.184 129.445 187.072 129.445 186.928C129.445 186.784 129.525 186.504 129.685 186.088C129.845 185.672 130.029 185.192 130.237 184.648C130.445 184.088 130.629 183.544 130.789 183.016C130.949 182.472 131.029 182.016 131.029 181.648C131.029 181.424 130.989 181.248 130.909 181.12C130.829 180.992 130.701 180.928 130.525 180.928C130.189 180.928 129.781 181.128 129.301 181.528C128.837 181.928 128.341 182.456 127.813 183.112C127.301 183.752 126.813 184.472 126.349 185.272C125.901 186.056 125.533 186.848 125.245 187.648C125.069 187.648 124.853 187.608 124.597 187.528C124.341 187.464 124.117 187.376 123.925 187.264C123.733 187.168 123.637 187.08 123.637 187C123.637 186.984 123.693 186.76 123.805 186.328C123.917 185.88 124.053 185.328 124.213 184.672C124.373 184.016 124.541 183.344 124.717 182.656C124.893 181.968 125.045 181.368 125.173 180.856C125.221 180.68 125.397 180.528 125.701 180.4C126.005 180.256 126.269 180.184 126.493 180.184C126.717 180.184 126.909 180.256 127.069 180.4C127.229 180.544 127.309 180.736 127.309 180.976C127.309 181.136 127.277 181.368 127.213 181.672C127.149 181.976 127.069 182.32 126.973 182.704C127.309 182.256 127.661 181.816 128.029 181.384C128.413 180.936 128.805 180.536 129.205 180.184C129.621 179.832 130.029 179.552 130.429 179.344C130.845 179.136 131.253 179.032 131.653 179.032C132.245 179.032 132.645 179.248 132.853 179.68C133.061 180.096 133.165 180.552 133.165 181.048C133.165 181.256 133.149 181.464 133.117 181.672C133.085 181.864 133.037 182.064 132.973 182.272C132.925 182.464 132.853 182.696 132.757 182.968C133.061 182.52 133.389 182.112 133.741 181.744C134.109 181.36 134.501 181.056 134.917 180.832C135.333 180.608 135.773 180.496 136.237 180.496C136.861 180.496 137.293 180.688 137.533 181.072C137.773 181.44 137.893 181.848 137.893 182.296C137.893 182.712 137.821 183.152 137.677 183.616C137.549 184.064 137.413 184.496 137.269 184.912C137.141 185.312 137.077 185.656 137.077 185.944C137.077 186.104 137.117 186.256 137.197 186.4C137.277 186.528 137.437 186.592 137.677 186.592C138.109 186.592 138.525 186.392 138.925 185.992C139.325 185.592 139.693 185.104 140.029 184.528C140.381 183.936 140.677 183.376 140.917 182.848L141.325 183.352C141.069 184.008 140.733 184.68 140.317 185.368C139.917 186.04 139.445 186.6 138.901 187.048C138.357 187.512 137.733 187.744 137.029 187.744ZM147.899 188.128C147.371 188.128 146.915 187.952 146.531 187.6C146.131 187.248 145.931 186.72 145.931 186.016C145.931 185.456 146.059 184.848 146.315 184.192C146.571 183.536 146.923 182.888 147.371 182.248C147.819 181.608 148.331 181.032 148.907 180.52C149.483 179.992 150.099 179.568 150.755 179.248C151.411 178.928 152.067 178.768 152.723 178.768C153.411 178.768 153.995 178.944 154.475 179.296C154.955 179.648 155.195 180.112 155.195 180.688C155.195 181.12 155.043 181.432 154.739 181.624C154.435 181.816 154.075 181.872 153.659 181.792C153.691 181.648 153.715 181.504 153.731 181.36C153.763 181.216 153.779 181.064 153.779 180.904C153.779 180.584 153.715 180.296 153.587 180.04C153.459 179.784 153.187 179.656 152.771 179.656C152.323 179.656 151.867 179.808 151.403 180.112C150.939 180.416 150.491 180.816 150.059 181.312C149.643 181.792 149.267 182.328 148.931 182.92C148.595 183.496 148.331 184.064 148.139 184.624C147.947 185.184 147.851 185.688 147.851 186.136C147.851 186.648 148.035 186.904 148.403 186.904C148.771 186.904 149.179 186.728 149.627 186.376C150.075 186.008 150.523 185.552 150.971 185.008C151.435 184.464 151.875 183.912 152.291 183.352C152.707 182.776 153.067 182.288 153.371 181.888C153.419 181.808 153.483 181.768 153.563 181.768C153.627 181.784 153.747 181.824 153.923 181.888C154.115 181.936 154.291 182.016 154.451 182.128C154.611 182.24 154.691 182.384 154.691 182.56C154.691 182.72 154.619 182.928 154.475 183.184C154.347 183.424 154.187 183.696 153.995 184C153.819 184.288 153.659 184.584 153.515 184.888C153.387 185.176 153.323 185.456 153.323 185.728C153.323 185.936 153.379 186.136 153.491 186.328C153.603 186.504 153.787 186.592 154.043 186.592C154.427 186.592 154.963 186.312 155.651 185.752C156.355 185.176 157.067 184.208 157.787 182.848L158.243 183.304C157.859 184.168 157.395 184.936 156.851 185.608C156.323 186.264 155.763 186.776 155.171 187.144C154.579 187.528 153.979 187.72 153.371 187.72C152.715 187.72 152.227 187.512 151.907 187.096C151.587 186.68 151.411 186.232 151.379 185.752C151.379 185.72 151.379 185.696 151.379 185.68C151.379 185.664 151.379 185.648 151.379 185.632C150.739 186.4 150.147 187.008 149.603 187.456C149.075 187.904 148.507 188.128 147.899 188.128ZM166.165 188.344C165.333 188.344 164.645 188.08 164.101 187.552C163.573 187.04 163.309 186.248 163.309 185.176C163.309 184.392 163.461 183.624 163.765 182.872C164.069 182.12 164.477 181.448 164.989 180.856C165.501 180.248 166.069 179.768 166.693 179.416C167.333 179.064 167.981 178.888 168.637 178.888C169.309 178.888 169.789 179.056 170.077 179.392C170.381 179.728 170.533 180.12 170.533 180.568C170.533 181.016 170.421 181.456 170.197 181.888C169.989 182.304 169.701 182.512 169.333 182.512C169.029 182.512 168.781 182.36 168.589 182.056C168.749 181.944 168.917 181.736 169.093 181.432C169.269 181.128 169.357 180.736 169.357 180.256C169.357 180.128 169.325 180.032 169.261 179.968C169.197 179.888 169.077 179.848 168.901 179.848C168.501 179.848 168.077 180.032 167.629 180.4C167.197 180.752 166.789 181.216 166.405 181.792C166.037 182.352 165.733 182.952 165.493 183.592C165.269 184.216 165.157 184.792 165.157 185.32C165.157 185.768 165.269 186.184 165.493 186.568C165.733 186.936 166.189 187.12 166.861 187.12C167.469 187.12 168.101 186.944 168.757 186.592C169.413 186.24 170.029 185.752 170.605 185.128C171.181 184.488 171.645 183.728 171.997 182.848L172.477 183.28C172.093 184.256 171.557 185.128 170.869 185.896C170.197 186.648 169.445 187.24 168.613 187.672C167.797 188.12 166.981 188.344 166.165 188.344ZM173.029 187.768C172.309 187.768 171.813 187.528 171.541 187.048C171.285 186.584 171.157 186.072 171.157 185.512C171.157 185 171.237 184.48 171.397 183.952C171.557 183.408 171.773 182.904 172.045 182.44C172.333 181.976 172.645 181.608 172.981 181.336C173.333 181.048 173.685 180.904 174.037 180.904C174.149 180.904 174.277 180.928 174.421 180.976C174.581 181.008 174.693 181.064 174.757 181.144C174.565 181.384 174.365 181.68 174.157 182.032C173.965 182.384 173.781 182.76 173.605 183.16C173.445 183.544 173.317 183.936 173.221 184.336C173.125 184.736 173.077 185.104 173.077 185.44C173.077 185.76 173.133 186.024 173.245 186.232C173.373 186.44 173.589 186.544 173.893 186.544C174.197 186.544 174.557 186.376 174.973 186.04C175.405 185.688 175.813 185.288 176.197 184.84C175.685 184.376 175.317 183.872 175.093 183.328C174.869 182.768 174.757 182.096 174.757 181.312C174.757 180.976 174.837 180.592 174.997 180.16C175.173 179.728 175.445 179.352 175.813 179.032C176.197 178.712 176.709 178.552 177.349 178.552C178.037 178.552 178.517 178.744 178.789 179.128C179.077 179.512 179.221 179.968 179.221 180.496C179.221 181.088 179.061 181.752 178.741 182.488C178.437 183.224 178.069 183.92 177.637 184.576C177.829 184.672 178.053 184.72 178.309 184.72C178.549 184.72 178.837 184.664 179.173 184.552C179.509 184.44 179.837 184.256 180.157 184C180.477 183.728 180.733 183.368 180.925 182.92L181.357 183.232C181.005 184.048 180.533 184.648 179.941 185.032C179.365 185.4 178.797 185.584 178.237 185.584C178.029 185.584 177.821 185.568 177.613 185.536C177.405 185.488 177.213 185.432 177.037 185.368C176.493 186.008 175.869 186.568 175.165 187.048C174.461 187.528 173.749 187.768 173.029 187.768ZM176.821 184.072C177.205 183.512 177.533 182.912 177.805 182.272C178.077 181.632 178.213 181.04 178.213 180.496C178.213 180.128 178.157 179.864 178.045 179.704C177.933 179.528 177.765 179.44 177.541 179.44C177.237 179.44 176.925 179.656 176.605 180.088C176.285 180.52 176.125 181.064 176.125 181.72C176.125 182.056 176.181 182.464 176.293 182.944C176.421 183.424 176.597 183.8 176.821 184.072ZM192.927 187.744C192.303 187.744 191.839 187.56 191.535 187.192C191.231 186.824 191.079 186.384 191.079 185.872C191.079 185.504 191.135 185.136 191.247 184.768C191.359 184.4 191.471 184.04 191.583 183.688C191.695 183.32 191.751 182.992 191.751 182.704C191.751 182.432 191.695 182.248 191.583 182.152C191.487 182.04 191.359 181.984 191.199 181.984C190.831 181.984 190.399 182.264 189.903 182.824C189.423 183.384 188.823 184.2 188.103 185.272C187.847 185.656 187.607 186.064 187.383 186.496C187.159 186.912 186.959 187.264 186.783 187.552C186.639 187.552 186.447 187.528 186.207 187.48C185.983 187.432 185.783 187.36 185.607 187.264C185.431 187.184 185.343 187.072 185.343 186.928C185.343 186.784 185.423 186.504 185.583 186.088C185.743 185.672 185.927 185.192 186.135 184.648C186.343 184.088 186.527 183.544 186.687 183.016C186.847 182.472 186.927 182.016 186.927 181.648C186.927 181.424 186.887 181.248 186.807 181.12C186.727 180.992 186.599 180.928 186.423 180.928C186.087 180.928 185.679 181.128 185.199 181.528C184.735 181.928 184.239 182.456 183.711 183.112C183.199 183.752 182.711 184.472 182.247 185.272C181.799 186.056 181.431 186.848 181.143 187.648C180.967 187.648 180.751 187.608 180.495 187.528C180.239 187.464 180.015 187.376 179.823 187.264C179.631 187.168 179.535 187.08 179.535 187C179.535 186.984 179.591 186.76 179.703 186.328C179.815 185.88 179.951 185.328 180.111 184.672C180.271 184.016 180.439 183.344 180.615 182.656C180.791 181.968 180.943 181.368 181.071 180.856C181.119 180.68 181.295 180.528 181.599 180.4C181.903 180.256 182.167 180.184 182.391 180.184C182.615 180.184 182.807 180.256 182.967 180.4C183.127 180.544 183.207 180.736 183.207 180.976C183.207 181.136 183.175 181.368 183.111 181.672C183.047 181.976 182.967 182.32 182.871 182.704C183.207 182.256 183.559 181.816 183.927 181.384C184.311 180.936 184.703 180.536 185.103 180.184C185.519 179.832 185.927 179.552 186.327 179.344C186.743 179.136 187.151 179.032 187.551 179.032C188.143 179.032 188.543 179.248 188.751 179.68C188.959 180.096 189.063 180.552 189.063 181.048C189.063 181.256 189.047 181.464 189.015 181.672C188.983 181.864 188.935 182.064 188.871 182.272C188.823 182.464 188.751 182.696 188.655 182.968C188.959 182.52 189.287 182.112 189.639 181.744C190.007 181.36 190.399 181.056 190.815 180.832C191.231 180.608 191.671 180.496 192.135 180.496C192.759 180.496 193.191 180.688 193.431 181.072C193.671 181.44 193.791 181.848 193.791 182.296C193.791 182.712 193.719 183.152 193.575 183.616C193.447 184.064 193.311 184.496 193.167 184.912C193.039 185.312 192.975 185.656 192.975 185.944C192.975 186.104 193.015 186.256 193.095 186.4C193.175 186.528 193.335 186.592 193.575 186.592C194.007 186.592 194.423 186.392 194.823 185.992C195.223 185.592 195.591 185.104 195.927 184.528C196.279 183.936 196.575 183.376 196.815 182.848L197.223 183.352C196.967 184.008 196.631 184.68 196.215 185.368C195.815 186.04 195.343 186.6 194.799 187.048C194.255 187.512 193.631 187.744 192.927 187.744ZM198.043 187.72C197.499 187.72 197.051 187.472 196.699 186.976C196.363 186.464 196.195 185.88 196.195 185.224C196.195 184.776 196.267 184.248 196.411 183.64C196.555 183.032 196.739 182.44 196.963 181.864C197.203 181.288 197.443 180.808 197.683 180.424C197.939 180.04 198.171 179.848 198.379 179.848C198.491 179.848 198.659 179.912 198.883 180.04C199.123 180.152 199.331 180.296 199.507 180.472C199.331 180.728 199.115 181.12 198.859 181.648C198.619 182.176 198.403 182.744 198.211 183.352C198.019 183.96 197.923 184.512 197.923 185.008C197.923 185.072 197.931 185.224 197.947 185.464C197.979 185.704 198.043 185.928 198.139 186.136C198.235 186.344 198.403 186.448 198.643 186.448C198.915 186.448 199.203 186.304 199.507 186.016C199.827 185.712 200.147 185.328 200.467 184.864C200.803 184.384 201.123 183.872 201.427 183.328C201.747 182.784 202.027 182.256 202.267 181.744C202.523 181.232 202.731 180.8 202.891 180.448C203.035 180.464 203.219 180.504 203.443 180.568C203.683 180.632 203.891 180.72 204.067 180.832C204.243 180.928 204.331 181.072 204.331 181.264C204.331 181.312 204.251 181.512 204.091 181.864C203.947 182.2 203.771 182.608 203.563 183.088C203.371 183.568 203.195 184.064 203.035 184.576C202.891 185.072 202.819 185.512 202.819 185.896C202.819 186.12 202.859 186.32 202.939 186.496C203.035 186.656 203.211 186.736 203.467 186.736C203.803 186.736 204.203 186.584 204.667 186.28C205.131 185.976 205.611 185.536 206.107 184.96C206.603 184.384 207.043 183.696 207.427 182.896L207.787 183.184C207.435 184.048 206.979 184.824 206.419 185.512C205.859 186.2 205.259 186.736 204.619 187.12C203.979 187.52 203.355 187.72 202.747 187.72C202.283 187.72 201.931 187.608 201.691 187.384C201.467 187.176 201.315 186.904 201.235 186.568C201.155 186.216 201.107 185.864 201.091 185.512C201.091 185.432 201.091 185.352 201.091 185.272C201.091 185.176 201.091 185.096 201.091 185.032C200.819 185.464 200.523 185.888 200.203 186.304C199.883 186.704 199.539 187.04 199.171 187.312C198.819 187.584 198.443 187.72 198.043 187.72ZM214.901 187.48C214.277 187.48 213.797 187.32 213.461 187C213.141 186.696 212.98 186.304 212.98 185.824C212.98 185.504 213.036 185.168 213.148 184.816C213.261 184.448 213.373 184.08 213.485 183.712C213.597 183.344 213.653 182.992 213.653 182.656C213.653 182.304 213.565 182.064 213.389 181.936C213.229 181.792 213.036 181.72 212.812 181.72C212.333 181.72 211.837 181.92 211.325 182.32C210.829 182.704 210.341 183.192 209.861 183.784C209.397 184.376 208.957 184.992 208.541 185.632C208.125 186.272 207.765 186.848 207.461 187.36C207.157 187.36 206.869 187.304 206.596 187.192C206.324 187.096 206.092 186.92 205.9 186.664C205.916 186.584 206.012 186.344 206.188 185.944C206.348 185.528 206.532 185.04 206.74 184.48C206.949 183.904 207.133 183.304 207.293 182.68C207.453 182.056 207.533 181.488 207.533 180.976C207.645 180.848 207.813 180.72 208.037 180.592C208.277 180.464 208.525 180.4 208.781 180.4C209.341 180.4 209.621 180.64 209.621 181.12C209.621 181.312 209.581 181.6 209.501 181.984C209.437 182.352 209.341 182.776 209.213 183.256C209.629 182.696 210.085 182.168 210.581 181.672C211.077 181.176 211.589 180.776 212.117 180.472C212.661 180.152 213.205 179.992 213.749 179.992C214.437 179.992 214.941 180.224 215.261 180.688C215.597 181.152 215.765 181.664 215.765 182.224C215.765 182.704 215.685 183.152 215.525 183.568C215.365 183.984 215.205 184.376 215.045 184.744C214.901 185.112 214.829 185.472 214.829 185.824C214.829 186.08 214.885 186.264 214.997 186.376C215.125 186.472 215.261 186.52 215.405 186.52C215.789 186.52 216.189 186.336 216.605 185.968C217.021 185.6 217.413 185.136 217.781 184.576C218.165 184 218.501 183.424 218.789 182.848L219.197 183.184C218.861 183.968 218.477 184.688 218.045 185.344C217.629 185.984 217.157 186.504 216.629 186.904C216.117 187.288 215.541 187.48 214.901 187.48ZM220.076 187.72C219.372 187.72 218.844 187.512 218.492 187.096C218.14 186.68 217.964 186.176 217.964 185.584C217.964 185.216 218.028 184.752 218.156 184.192C218.284 183.632 218.46 183.048 218.684 182.44C218.924 181.816 219.196 181.232 219.5 180.688C219.804 180.144 220.132 179.704 220.484 179.368C220.836 179.016 221.188 178.84 221.54 178.84C221.732 178.84 221.9 178.904 222.044 179.032C222.188 179.144 222.26 179.312 222.26 179.536C222.26 179.744 222.132 180.056 221.876 180.472C221.636 180.888 221.348 181.368 221.012 181.912C220.692 182.456 220.404 183.024 220.148 183.616C219.908 184.192 219.788 184.744 219.788 185.272C219.788 185.784 219.876 186.128 220.052 186.304C220.244 186.464 220.516 186.544 220.868 186.544C221.412 186.544 222.004 186.272 222.644 185.728C223.284 185.184 223.948 184.232 224.636 182.872L224.996 183.256C224.436 184.664 223.724 185.76 222.86 186.544C221.996 187.328 221.068 187.72 220.076 187.72ZM222.908 176.896C222.604 176.896 222.324 176.824 222.068 176.68C221.828 176.52 221.708 176.28 221.708 175.96C221.708 175.576 221.916 175.248 222.332 174.976C222.748 174.704 223.18 174.568 223.628 174.568C223.916 174.568 224.156 174.632 224.348 174.76C224.556 174.888 224.66 175.12 224.66 175.456C224.66 175.792 224.476 176.12 224.108 176.44C223.74 176.744 223.34 176.896 222.908 176.896ZM225.672 187.72C225.368 187.72 225.056 187.64 224.736 187.48C224.432 187.336 224.176 187.104 223.968 186.784C223.744 186.464 223.632 186.056 223.632 185.56C223.632 185.032 223.76 184.44 224.016 183.784C224.272 183.128 224.616 182.472 225.048 181.816C225.496 181.16 226.008 180.56 226.584 180.016C227.176 179.472 227.8 179.032 228.456 178.696C229.112 178.36 229.776 178.192 230.448 178.192C230.816 178.192 231.104 178.256 231.312 178.384C231.52 178.496 231.624 178.688 231.624 178.96C231.624 179.04 231.608 179.136 231.576 179.248C231.544 179.344 231.464 179.432 231.336 179.512C231.272 179.416 231.16 179.352 231 179.32C230.84 179.272 230.672 179.248 230.496 179.248C229.968 179.248 229.464 179.4 228.984 179.704C228.504 179.992 228.064 180.368 227.664 180.832C227.264 181.296 226.912 181.8 226.608 182.344C226.32 182.888 226.096 183.416 225.936 183.928C225.776 184.424 225.696 184.856 225.696 185.224C225.696 185.528 225.76 185.776 225.888 185.968C226.016 186.144 226.208 186.232 226.464 186.232C226.896 186.232 227.408 185.984 228 185.488C228.608 184.976 229.224 184.248 229.848 183.304C230.488 182.344 231.064 181.2 231.576 179.872C231.928 178.96 232.296 178.032 232.68 177.088C233.064 176.128 233.448 175.208 233.832 174.328C234.216 173.448 234.592 172.664 234.96 171.976C235.344 171.288 235.704 170.744 236.04 170.344C236.392 169.928 236.712 169.72 237 169.72C237.176 169.72 237.328 169.792 237.456 169.936C237.6 170.064 237.672 170.232 237.672 170.44C237.672 170.712 237.536 171.152 237.264 171.76C237.008 172.352 236.672 173.064 236.256 173.896C235.856 174.728 235.416 175.632 234.936 176.608C234.472 177.568 234.032 178.56 233.616 179.584C233.216 180.592 232.88 181.592 232.608 182.584C232.352 183.56 232.224 184.48 232.224 185.344C232.224 185.728 232.256 185.992 232.32 186.136C232.4 186.264 232.528 186.328 232.704 186.328C233.056 186.328 233.448 186.192 233.88 185.92C234.312 185.648 234.752 185.248 235.2 184.72C235.648 184.176 236.056 183.528 236.424 182.776L236.88 183.16C236.528 184.04 236.08 184.816 235.536 185.488C234.992 186.16 234.408 186.68 233.784 187.048C233.16 187.432 232.544 187.624 231.936 187.624C231.28 187.624 230.824 187.416 230.568 187C230.312 186.584 230.184 186.096 230.184 185.536C230.184 185.28 230.2 185.024 230.232 184.768C230.28 184.496 230.328 184.232 230.376 183.976C229.88 184.696 229.352 185.344 228.792 185.92C228.248 186.48 227.712 186.92 227.184 187.24C226.656 187.56 226.152 187.72 225.672 187.72ZM237.149 188.128C236.621 188.128 236.165 187.952 235.781 187.6C235.381 187.248 235.181 186.72 235.181 186.016C235.181 185.456 235.309 184.848 235.565 184.192C235.821 183.536 236.173 182.888 236.621 182.248C237.069 181.608 237.581 181.032 238.157 180.52C238.733 179.992 239.349 179.568 240.005 179.248C240.661 178.928 241.317 178.768 241.973 178.768C242.661 178.768 243.245 178.944 243.725 179.296C244.205 179.648 244.445 180.112 244.445 180.688C244.445 181.12 244.293 181.432 243.989 181.624C243.685 181.816 243.325 181.872 242.909 181.792C242.941 181.648 242.965 181.504 242.981 181.36C243.013 181.216 243.029 181.064 243.029 180.904C243.029 180.584 242.965 180.296 242.837 180.04C242.709 179.784 242.437 179.656 242.021 179.656C241.573 179.656 241.117 179.808 240.653 180.112C240.189 180.416 239.741 180.816 239.309 181.312C238.893 181.792 238.517 182.328 238.181 182.92C237.845 183.496 237.581 184.064 237.389 184.624C237.197 185.184 237.101 185.688 237.101 186.136C237.101 186.648 237.285 186.904 237.653 186.904C238.021 186.904 238.429 186.728 238.877 186.376C239.325 186.008 239.773 185.552 240.221 185.008C240.685 184.464 241.125 183.912 241.541 183.352C241.957 182.776 242.317 182.288 242.621 181.888C242.669 181.808 242.733 181.768 242.813 181.768C242.877 181.784 242.997 181.824 243.173 181.888C243.365 181.936 243.541 182.016 243.701 182.128C243.861 182.24 243.941 182.384 243.941 182.56C243.941 182.72 243.869 182.928 243.725 183.184C243.597 183.424 243.437 183.696 243.245 184C243.069 184.288 242.909 184.584 242.765 184.888C242.637 185.176 242.573 185.456 242.573 185.728C242.573 185.936 242.629 186.136 242.741 186.328C242.853 186.504 243.037 186.592 243.293 186.592C243.677 186.592 244.213 186.312 244.901 185.752C245.605 185.176 246.317 184.208 247.037 182.848L247.493 183.304C247.109 184.168 246.645 184.936 246.101 185.608C245.573 186.264 245.013 186.776 244.421 187.144C243.829 187.528 243.229 187.72 242.621 187.72C241.965 187.72 241.477 187.512 241.157 187.096C240.837 186.68 240.661 186.232 240.629 185.752C240.629 185.72 240.629 185.696 240.629 185.68C240.629 185.664 240.629 185.648 240.629 185.632C239.989 186.4 239.397 187.008 238.853 187.456C238.325 187.904 237.757 188.128 237.149 188.128ZM248.125 187.72C247.821 187.72 247.509 187.64 247.189 187.48C246.885 187.336 246.629 187.104 246.421 186.784C246.197 186.464 246.085 186.056 246.085 185.56C246.085 185.032 246.213 184.44 246.469 183.784C246.725 183.128 247.069 182.472 247.501 181.816C247.949 181.16 248.461 180.56 249.037 180.016C249.629 179.472 250.253 179.032 250.909 178.696C251.565 178.36 252.229 178.192 252.901 178.192C253.269 178.192 253.557 178.256 253.765 178.384C253.973 178.496 254.077 178.688 254.077 178.96C254.077 179.04 254.061 179.136 254.029 179.248C253.997 179.344 253.917 179.432 253.789 179.512C253.725 179.416 253.613 179.352 253.453 179.32C253.293 179.272 253.125 179.248 252.949 179.248C252.421 179.248 251.917 179.4 251.437 179.704C250.957 179.992 250.517 180.368 250.117 180.832C249.717 181.296 249.365 181.8 249.061 182.344C248.773 182.888 248.549 183.416 248.389 183.928C248.229 184.424 248.149 184.856 248.149 185.224C248.149 185.528 248.213 185.776 248.341 185.968C248.469 186.144 248.661 186.232 248.917 186.232C249.349 186.232 249.861 185.984 250.453 185.488C251.061 184.976 251.677 184.248 252.301 183.304C252.941 182.344 253.517 181.2 254.029 179.872C254.381 178.96 254.749 178.032 255.133 177.088C255.517 176.128 255.901 175.208 256.285 174.328C256.669 173.448 257.045 172.664 257.413 171.976C257.797 171.288 258.157 170.744 258.493 170.344C258.845 169.928 259.165 169.72 259.453 169.72C259.629 169.72 259.781 169.792 259.909 169.936C260.053 170.064 260.125 170.232 260.125 170.44C260.125 170.712 259.989 171.152 259.717 171.76C259.461 172.352 259.125 173.064 258.709 173.896C258.309 174.728 257.869 175.632 257.389 176.608C256.925 177.568 256.485 178.56 256.069 179.584C255.669 180.592 255.333 181.592 255.061 182.584C254.805 183.56 254.677 184.48 254.677 185.344C254.677 185.728 254.709 185.992 254.773 186.136C254.853 186.264 254.981 186.328 255.157 186.328C255.509 186.328 255.901 186.192 256.333 185.92C256.765 185.648 257.205 185.248 257.653 184.72C258.101 184.176 258.509 183.528 258.877 182.776L259.333 183.16C258.981 184.04 258.533 184.816 257.989 185.488C257.445 186.16 256.861 186.68 256.237 187.048C255.613 187.432 254.997 187.624 254.389 187.624C253.733 187.624 253.277 187.416 253.021 187C252.765 186.584 252.637 186.096 252.637 185.536C252.637 185.28 252.653 185.024 252.685 184.768C252.733 184.496 252.781 184.232 252.829 183.976C252.333 184.696 251.805 185.344 251.245 185.92C250.701 186.48 250.165 186.92 249.637 187.24C249.109 187.56 248.605 187.72 248.125 187.72ZM261.042 188.056C260.018 188.056 259.226 187.776 258.666 187.216C258.122 186.672 257.85 185.984 257.85 185.152C257.85 184.448 258.026 183.704 258.378 182.92C258.746 182.12 259.234 181.376 259.842 180.688C260.45 179.984 261.122 179.416 261.858 178.984C262.594 178.552 263.33 178.336 264.066 178.336C264.482 178.336 264.874 178.448 265.242 178.672C265.626 178.88 265.818 179.304 265.818 179.944C265.818 180.552 265.642 181.12 265.29 181.648C264.938 182.176 264.466 182.648 263.874 183.064C263.282 183.48 262.626 183.824 261.906 184.096C261.202 184.352 260.49 184.52 259.77 184.6C259.754 184.664 259.738 184.736 259.722 184.816C259.722 184.88 259.722 184.992 259.722 185.152C259.722 185.232 259.73 185.376 259.746 185.584C259.778 185.776 259.85 185.984 259.962 186.208C260.074 186.432 260.258 186.624 260.514 186.784C260.77 186.944 261.122 187.024 261.57 187.024C262.242 187.024 262.914 186.84 263.586 186.472C264.274 186.088 264.914 185.584 265.506 184.96C266.114 184.336 266.618 183.64 267.018 182.872L267.498 183.256C267.066 184.216 266.506 185.056 265.818 185.776C265.146 186.496 264.394 187.056 263.562 187.456C262.746 187.856 261.906 188.056 261.042 188.056ZM260.034 183.712C260.45 183.664 260.914 183.52 261.426 183.28C261.938 183.04 262.426 182.736 262.89 182.368C263.37 182 263.762 181.6 264.066 181.168C264.37 180.72 264.522 180.272 264.522 179.824C264.522 179.648 264.49 179.528 264.426 179.464C264.362 179.4 264.258 179.368 264.114 179.368C263.746 179.368 263.362 179.504 262.962 179.776C262.562 180.032 262.17 180.376 261.786 180.808C261.402 181.224 261.058 181.688 260.754 182.2C260.45 182.712 260.21 183.216 260.034 183.712Z" fill="#E35640"/>
<path d="M3.4375 165V110H20.3125C23.125 110 25.25 110.646 26.6875 111.938C28.125 113.208 29.0833 115 29.5625 117.312C30.0625 119.604 30.3125 122.302 30.3125 125.406C30.3125 128.406 29.9271 130.802 29.1562 132.594C28.4062 134.385 26.9792 135.625 24.875 136.312C26.6042 136.667 27.8125 137.531 28.5 138.906C29.2083 140.26 29.5625 142.021 29.5625 144.188V165H18.7188V143.469C18.7188 141.865 18.3854 140.875 17.7188 140.5C17.0729 140.104 16.0208 139.906 14.5625 139.906V165H3.4375ZM14.625 130.375H17.2812C18.8021 130.375 19.5625 128.719 19.5625 125.406C19.5625 123.26 19.3958 121.854 19.0625 121.188C18.7292 120.521 18.1042 120.188 17.1875 120.188H14.625V130.375ZM41.2975 165V110H63.2975V120.625H52.485V131.344H62.86V141.688H52.485V154.281H64.0163V165H41.2975ZM87.845 165.5C83.8658 165.5 80.6575 164.26 78.22 161.781C75.8033 159.302 74.595 155.833 74.595 151.375V126C74.595 120.667 75.6471 116.583 77.7513 113.75C79.8763 110.917 83.3242 109.5 88.095 109.5C90.6992 109.5 93.0117 109.979 95.0325 110.938C97.0742 111.896 98.6783 113.333 99.845 115.25C101.012 117.146 101.595 119.542 101.595 122.438V131.938H90.6575V123.812C90.6575 122.167 90.4492 121.062 90.0325 120.5C89.6158 119.917 88.97 119.625 88.095 119.625C87.0742 119.625 86.3867 120 86.0325 120.75C85.6783 121.479 85.5013 122.458 85.5013 123.688V151.219C85.5013 152.74 85.72 153.812 86.1575 154.438C86.6158 155.062 87.2617 155.375 88.095 155.375C89.0325 155.375 89.6888 154.99 90.0638 154.219C90.4596 153.448 90.6575 152.448 90.6575 151.219V141.312H101.72V151.719C101.72 156.552 100.501 160.062 98.0638 162.25C95.6263 164.417 92.22 165.5 87.845 165.5ZM112.768 165V110H134.768V120.625H123.955V131.344H134.33V141.688H123.955V154.281H135.486V165H112.768ZM146.003 165V110H156.628V165H146.003ZM173.081 165V120.562H166.55V110H190.613V120.562H184.081V165H173.081ZM198.723 165L204.035 110H222.691L227.91 165H217.504L216.723 156.125H210.098L209.41 165H198.723ZM210.879 147.344H215.879L213.473 119.375H212.973L210.879 147.344ZM251.708 165.5C246.687 165.5 243.062 164.25 240.833 161.75C238.624 159.25 237.52 155.271 237.52 149.812V144.438H248.395V151.312C248.395 152.583 248.583 153.583 248.958 154.312C249.353 155.021 250.03 155.375 250.989 155.375C251.989 155.375 252.676 155.083 253.051 154.5C253.447 153.917 253.645 152.958 253.645 151.625C253.645 149.938 253.478 148.531 253.145 147.406C252.812 146.26 252.228 145.177 251.395 144.156C250.583 143.115 249.447 141.906 247.989 140.531L243.051 135.844C239.364 132.365 237.52 128.385 237.52 123.906C237.52 119.219 238.603 115.646 240.77 113.188C242.958 110.729 246.114 109.5 250.239 109.5C255.28 109.5 258.853 110.844 260.958 113.531C263.083 116.219 264.145 120.302 264.145 125.781H252.958V122C252.958 121.25 252.739 120.667 252.301 120.25C251.885 119.833 251.312 119.625 250.583 119.625C249.708 119.625 249.062 119.875 248.645 120.375C248.249 120.854 248.051 121.479 248.051 122.25C248.051 123.021 248.26 123.854 248.676 124.75C249.093 125.646 249.916 126.677 251.145 127.844L257.489 133.938C258.76 135.146 259.926 136.427 260.989 137.781C262.051 139.115 262.905 140.677 263.551 142.469C264.197 144.24 264.52 146.406 264.52 148.969C264.52 154.135 263.562 158.188 261.645 161.125C259.749 164.042 256.437 165.5 251.708 165.5Z" fill="#14123C"/>
<path fill-rule="evenodd" clip-rule="evenodd" d="M99.7296 47.135C92.6844 43.9162 88 36.8393 88 28.8719C88 17.7848 96.9877 8.79718 108.075 8.79718C111.101 8.79718 114.031 9.4697 116.691 10.7355C120.1 4.248 126.879 0 134.466 0C141.648 0 148.135 3.80665 151.705 9.78024C153.693 9.13266 155.787 8.79718 157.925 8.79718C169.012 8.79718 178 17.7848 178 28.8719C178 36.8393 173.316 43.9162 166.27 47.135V78.7028C166.27 84.9421 161.213 90 154.973 90H111.027C104.787 90 99.7296 84.9421 99.7296 78.7028V47.135ZM103.036 43.1264L104.69 43.7111V71.8436H161.31V43.7111L162.964 43.1264C168.953 41.0097 173.039 35.3289 173.039 28.8718C173.039 20.5245 166.273 13.7578 157.925 13.7578C155.701 13.7578 153.549 14.237 151.579 15.1502L149.298 16.2072L148.272 13.9123C145.857 8.51131 140.486 4.96062 134.466 4.96062C127.997 4.96062 122.308 9.06292 120.2 15.0685L119.14 18.0914L116.479 16.3074C114.012 14.6536 111.113 13.7578 108.075 13.7578C99.7274 13.7578 92.9606 20.5245 92.9606 28.8719C92.9606 35.3289 97.0473 41.0097 103.036 43.1264ZM115.858 50.8647C115.858 49.4949 116.968 48.3844 118.338 48.3844C119.708 48.3844 120.818 49.4949 120.818 50.8647V59.6619C120.818 61.0317 119.708 62.1422 118.338 62.1422C116.968 62.1422 115.858 61.0317 115.858 59.6619V50.8647ZM145.182 50.8647C145.182 49.4949 146.292 48.3844 147.662 48.3844C149.032 48.3844 150.142 49.4949 150.142 50.8647V59.6619C150.142 61.0317 149.032 62.1422 147.662 62.1422C146.292 62.1422 145.182 61.0317 145.182 59.6619V50.8647ZM130.52 53.7972C130.52 52.4273 131.63 51.3168 133 51.3168C134.37 51.3168 135.48 52.4273 135.48 53.7972V62.5943C135.48 63.9642 134.37 65.0747 133 65.0747C131.63 65.0747 130.52 63.9642 130.52 62.5943V53.7972ZM104.69 78.7028V76.8043H161.31V78.7028C161.31 82.2024 158.473 85.0393 154.973 85.0393H111.027C107.527 85.0393 104.69 82.2024 104.69 78.7028Z" fill="#14123C"/>
</svg>
