<svg width="30" height="29" viewBox="0 0 30 29" fill="none" xmlns="http://www.w3.org/2000/svg">
<path fill-rule="evenodd" clip-rule="evenodd" d="M27.4346 0.180205C28.426 0.037169 29.2764 0.887555 29.1334 1.87902L27.5292 12.9987L27.4726 12.9906L27.5769 13.0949L12.2762 28.3956C11.6904 28.9814 10.7406 28.9814 10.1548 28.3956L0.92101 19.1618C0.335228 18.576 0.335222 17.6263 0.920999 17.0405L16.2216 1.73959L16.323 1.84101L16.3148 1.78442L27.4346 0.180205ZM28.1436 1.73623L26.5626 12.695L11.5691 27.6885C11.3738 27.8838 11.0572 27.8838 10.862 27.6885L1.62812 18.4547C1.43286 18.2594 1.43285 17.9429 1.62811 17.7476L16.6254 2.74997L27.5773 1.16996C27.9078 1.12228 28.1913 1.40574 28.1436 1.73623ZM24.4839 6.7459C23.8571 7.37269 22.9551 7.33847 22.4666 6.84991C21.978 6.36135 21.9438 5.45939 22.5706 4.8326C23.1974 4.20581 24.0993 4.24003 24.5879 4.72859C25.0764 5.21715 25.1107 6.11911 24.4839 6.7459ZM25.191 7.45301C24.2147 8.42932 22.6783 8.47588 21.7595 7.55702C20.8406 6.63815 20.8872 5.1018 21.8635 4.12549C22.8398 3.14918 24.3761 3.10262 25.295 4.02148C26.2139 4.94035 26.1673 6.4767 25.191 7.45301Z" fill="#E35640"/>
</svg>
