<svg xmlns="http://www.w3.org/2000/svg" viewBox="0 0 45 42" preserveAspectRatio="xMidYMin slice">
  <path 
    d="M22.741 10.26a2.282 2.282 0 012.719 1.733l.178.804 11.417-2.52a.727.727 0 11.314 1.42l-25.326 5.59h17.525a3.838 3.838 0 013.762-3.102 3.838 3.838 0 013.763 3.101h2.447a.727.727 0 110 1.454h-.848l-.055 1.648h4.008a2.281 2.281 0 012.28 2.277 2.281 2.281 0 01-2.28 2.278h-4.16l-.446 13.356a3.815 3.815 0 01-3.83 3.7H10.716a3.815 3.815 0 01-3.83-3.7L6.44 24.943h-4.16A2.281 2.281 0 010 22.665a2.281 2.281 0 012.28-2.277H6.29l-.055-1.648h-.858l-.018-.001a.726.726 0 01-.138-1.435l11.417-2.52-.178-.805a2.28 2.28 0 011.735-2.715zM36.473 38.9H8.453a2.366 2.366 0 002.264 1.647h23.491a2.366 2.366 0 002.265-1.647zm.763-20.159H7.69l.625 18.705H36.61l.625-18.705zm5.41 3.101h-4.058l-.055 1.648h4.112c.455 0 .825-.37.825-.824a.825.825 0 00-.825-.824zm-36.308 0H2.28a.825.825 0 00-.824.824c0 .454.37.824.824.824h4.113l-.055-1.648zM33.33 15.64a2.381 2.381 0 00-2.263 1.647h4.526a2.38 2.38 0 00-2.263-1.647zM40.5 12c1.379 0 2.5 1.121 2.5 2.5S41.879 17 40.5 17a2.503 2.503 0 01-2.5-2.5c0-1.379 1.121-2.5 2.5-2.5zm0 1.596a.905.905 0 000 1.808.905.905 0 000-1.808zm-16.462-1.29a.826.826 0 00-.983-.626l-4.548 1.004a.825.825 0 00-.627.982l.178.804 6.158-1.359zM30.5 7c.827 0 1.5.673 1.5 1.5s-.673 1.5-1.5 1.5S29 9.327 29 8.5 29.673 7 30.5 7zm6-3C37.879 4 39 5.121 39 6.5S37.879 9 36.5 9A2.503 2.503 0 0134 6.5C34 5.121 35.121 4 36.5 4zm0 1.596a.905.905 0 000 1.808.905.905 0 000-1.808zM33 0a1 1 0 010 2 1.001 1.001 0 010-2z" fill="currentcolor" fill-rule="nonzero">
  </path>
</svg>