<svg xmlns="http://www.w3.org/2000/svg" viewBox="0 0 46 39" preserveAspectRatio="xMidYMin slice">
  <path 
    d="M43.41 23.995c-1.167 2-2.273 4.04-3.745 5.846a13.978 13.978 0 01-3.146 2.893c-.142.101-.355.132-.538.132H17.873c-2.832 0-5.674.01-8.505-.01-.244 0-.518-.102-.721-.224-2.335-1.563-3.898-3.796-5.309-6.15-.507-.843-.984-1.706-1.522-2.63h41.615c-.01.061 0 .112-.02.143zm-32.845-4.08c.69-2.274 2.142-4.02 3.969-5.461 1.431-1.157 3.035-1.98 4.841-2.375 1.107-.234 2.203-.264 3.34 0-5.268 1.979-9.41 5.278-12.556 9.957.132-.71.193-1.442.406-2.122zm13.388-6.243c-3.563 2.862-7.125 5.694-10.668 8.567-.527.426-1.055.182-1.613.284 1.877-3.938 9.49-9.44 12.626-9.166-.162.143-.254.244-.345.315zm1.137.802c.05.03.101.06.142.101-.142.356-.264.731-.436 1.066-.802 1.553-1.94 2.862-3.218 4.03-1.005.923-2.101 1.756-3.177 2.608-.172.142-.447.213-.68.224-.842.01-1.675.01-2.517.01-.01-.03-.02-.071-.03-.102l9.916-7.937zm2.984-4.212c.325.396.62.76.944 1.157-.771.619-1.553 1.248-2.375 1.898-.315-.386-.61-.761-.934-1.157.792-.64 1.583-1.269 2.365-1.898zm-2.03 6.678c-.112 1.259-.528 2.416-1.188 3.472-.456.72-1.004 1.37-1.522 2.06-.7.01-1.4.03-2.111.04h-.863c2.253-1.836 4.233-3.734 5.694-6.18 0 .202.01.405-.01.608zm18.89 5.654c-.184-.081-.397-.081-.6-.081H25.11c.376-.61.731-1.117 1.025-1.665 1.036-1.878 1.563-3.857 1.076-6.029-.02-.112.071-.315.163-.386.822-.68 1.664-1.32 2.497-1.99.395-.314.75-.628 1.309-.618.233.01.507-.112.7-.244.528-.355 1.036-.74 1.533-1.137.436-.335.497-.69.254-1.025-.264-.335-.65-.345-1.086-.01-.417.325-.802.68-1.239.934-.903.558-2.03-.091-2.07-1.147-.03-.589.274-.974.7-1.31 1.685-1.34 3.36-2.7 5.045-4.029.923-.751 1.837-1.502 2.77-2.213.66-.507 1.472-.385 1.97.234.467.599.375 1.42-.213 1.959-.153.122-.305.233-.447.365-1.472 1.178-2.944 2.355-4.415 3.542-.447.376-.518.741-.244 1.066.264.305.66.305 1.066-.01 1.593-1.289 3.197-2.578 4.79-3.867.468-.376.813-.843.985-1.441A2.734 2.734 0 0040.193.497c-1.045-.72-2.284-.66-3.36.193-2.598 2.07-5.186 4.152-7.774 6.232-.488.396-.863.873-1.036 1.503-.05.152-.172.304-.304.416-.964.791-1.939 1.583-2.923 2.354-.102.082-.315.122-.417.072-2.162-1.036-4.354-.863-6.546-.122-2.223.761-4.121 2.04-5.725 3.725-1.492 1.563-2.629 3.35-3.045 5.501-.122.69-.142 1.39-.213 2.142H.862c-.792 0-1.086.497-.68 1.197.761 1.31 1.522 2.62 2.304 3.918.934 1.553 1.949 3.035 3.258 4.294.73.72 1.543 1.36 2.355 2.06l-.112.234c-.74 1.583-.04 3.887 2.355 3.867.68 0 1.36.01 2.04 0 .548 0 .863-.274.853-.69-.01-.406-.315-.64-.843-.64-.7-.01-1.41 0-2.121 0-.782-.01-1.218-.467-1.228-1.258-.01-.812.436-1.29 1.228-1.29 8.252-.01 16.504-.01 24.756 0 .223 0 .477.061.67.163.507.274.69.883.517 1.563-.132.518-.568.822-1.208.822H21.761c-2.233 0-4.456-.01-6.69 0-.466 0-.74.244-.75.63-.02.405.264.67.74.7h13.023c2.335 0 4.67.01 6.994 0 1.37-.01 2.314-.873 2.496-2.213.092-.69-.05-1.34-.395-1.939.304-.223.558-.416.822-.609 1.776-1.37 3.177-3.075 4.354-4.963a257.635 257.635 0 002.822-4.75c.243-.416.142-.853-.244-1.015z" fill="currentcolor" fill-rule="nonzero">
  </path>
</svg>